<svg id="Group_518" data-name="Group 518" xmlns="http://www.w3.org/2000/svg" width="260.743" height="64.526" viewBox="0 0 260.743 64.526">
  <g id="Group_43" data-name="Group 43" transform="translate(0 15.043)">
    <path id="Path_81" data-name="Path 81" d="M43.651,69.428H29.122c-.853,1.917-1.7,3.835-2.429,5.709h-6.6C24.946,64.485,30.912,52.555,36.2,43.182h.384c5.283,9.373,11.248,21.3,16.105,31.955h-6.6C45.355,73.219,44.5,71.345,43.651,69.428ZM31.466,64.315h9.885c-1.619-3.579-3.323-7.158-4.942-10.482C34.746,57.157,33.085,60.736,31.466,64.315Z" transform="translate(-20.089 -41.478)" fill="#fff"/>
    <path id="Path_82" data-name="Path 82" d="M71.231,57.863c-4.73,0-7.883,2.9-7.883,7.243s3.2,7.243,8.011,7.243a19.936,19.936,0,0,0,5.751-1.065v4.388a21.291,21.291,0,0,1-7.669,1.363c-7.329,0-12.271-4.772-12.271-11.93s4.942-11.93,12.271-11.93a21.43,21.43,0,0,1,7.243,1.364v4.388A15.709,15.709,0,0,0,71.231,57.863Z" transform="translate(-25.556 -42.951)" fill="#fff"/>
    <path id="Path_83" data-name="Path 83" d="M99.324,71.046v4.389a28.12,28.12,0,0,1-5.113.511c-4.729,0-7.882-3.068-7.882-7.712V56.772H83.006v-4.26h3.323V47.484l5.965-1.7v6.732h6.817v4.26H92.294V67.3a3.68,3.68,0,0,0,3.835,3.963A26.8,26.8,0,0,0,99.324,71.046Z" transform="translate(-29.364 -41.861)" fill="#fff"/>
    <path id="Path_84" data-name="Path 84" d="M124.844,76.823a11.406,11.406,0,0,1-5.2-1.235,17.936,17.936,0,0,1-7.073,1.449c-5.283,0-8.479-2.641-8.479-7.157s3.451-7.158,9.374-7.158a18.188,18.188,0,0,1,5.41.894V62.252c0-2.769-1.874-4.389-5.156-4.389a31.239,31.239,0,0,0-7.754,1.108V54.625a26.661,26.661,0,0,1,8.99-1.449c6.22,0,9.885,3.154,9.885,8.522Zm-9.885-4.047a10.681,10.681,0,0,0,3.919-.767v-4.6a9.784,9.784,0,0,0-3.919-.81c-2.9,0-4.687,1.151-4.687,3.154C110.273,71.668,112.061,72.776,114.959,72.776Z" transform="translate(-32.473 -42.951)" fill="#fff"/>
    <path id="Path_85" data-name="Path 85" d="M133.329,42.887l5.965-1.7V74.842h-5.965Z" transform="translate(-36.783 -41.183)" fill="#fff"/>
    <path id="Path_86" data-name="Path 86" d="M166.058,67.237H150.251c.426,3.366,2,5.113,6.6,5.113a28.936,28.936,0,0,0,7.8-1.278V75.46a26.9,26.9,0,0,1-9.161,1.576c-6.86,0-11.419-4.133-11.419-11.76,0-7.243,4.473-12.1,11.121-12.1,6.6,0,11.078,4.645,11.078,11.59A21.378,21.378,0,0,1,166.058,67.237ZM150.208,63.4h9.97c-.383-3.493-2.044-5.709-4.984-5.709C152.211,57.693,150.549,59.951,150.208,63.4Z" transform="translate(-38.367 -42.951)" fill="#fff"/>
    <path id="Path_87" data-name="Path 87" d="M196.026,62.166V76.61h-5.965V62.678c0-3.2-1.79-4.815-5.113-4.815a11.7,11.7,0,0,0-5.326,1.407V76.61h-5.965V53.389a9.908,9.908,0,0,1,5.709,1.535,21.057,21.057,0,0,1,8.01-1.748C192.831,53.176,196.026,56.031,196.026,62.166Z" transform="translate(-42.729 -42.951)" fill="#fff"/>
    <path id="Path_88" data-name="Path 88" d="M217.561,71.046v4.389a28.12,28.12,0,0,1-5.113.511c-4.729,0-7.882-3.068-7.882-7.712V56.772h-3.323v-4.26h3.323V47.484l5.965-1.7v6.732h6.817v4.26h-6.817V67.3a3.68,3.68,0,0,0,3.835,3.963A26.815,26.815,0,0,0,217.561,71.046Z" transform="translate(-46.795 -41.861)" fill="#fff"/>
  </g>
  <path id="Path_89" data-name="Path 89" d="M244.85,88.065l4.18-9.487a44.263,44.263,0,0,1,6.514-4.612l-6.212,14.1H251.8l6.96-15.8A44.291,44.291,0,0,1,264.2,70.11l-7.91,17.954h2.473l8.263-18.755a44.293,44.293,0,0,1,21.824.064l8.368,18.691h2.479L291.7,70.21a44.262,44.262,0,0,1,5.47,2.222l7,15.633h2.479L300.439,74.2a44.3,44.3,0,0,1,6.64,4.834l4.045,9.034H313.6L284.715,23.539l-3.45,7.829-3.5-7.829-3.45,7.829-3.5-7.829L242.378,88.065Zm20.312-20.146a46.13,46.13,0,0,0-5.3,1.863l2.038-4.625A49.777,49.777,0,0,1,267,63.741Zm-2.17-5.248,1.739-3.948q2.427-.59,4.9-.957l-1.621,3.679Q265.473,61.932,262.992,62.671Zm14.794,3.485a46.209,46.209,0,0,0-9.846,1.067l1.767-4.008a49.8,49.8,0,0,1,16.4.04l1.8,4.026A46.224,46.224,0,0,0,277.786,66.157Zm0-8.988a56.039,56.039,0,0,1,5.728.294l1.6,3.579a51.246,51.246,0,0,0-14.437-.033l1.572-3.567Q274.995,57.171,277.786,57.169Zm-4.5-2.087,4.543-10.31L282.455,55.1q-2.319-.185-4.669-.189Q275.524,54.906,273.291,55.082ZM286.142,57.8q2.482.376,4.915.98l1.779,3.976a51.8,51.8,0,0,0-5.039-1.258Zm4.573,10.214L288.83,63.8a49.753,49.753,0,0,1,5.125,1.45l2.1,4.681A45.963,45.963,0,0,0,290.716,68.009Zm14.715,7.339a45.955,45.955,0,0,0-6.231-3.92l-2.259-5.047a49.459,49.459,0,0,1,5.751,2.85Zm-4.111-9.182a51.545,51.545,0,0,0-5.566-2.436l-1.87-4.175a54.987,54.987,0,0,1,5.343,1.937ZM284.732,29.113,297.9,58.533q-2.578-.966-5.225-1.675L282.512,34.152Zm-3.45,7.829L289.9,56.188q-2.4-.517-4.846-.828l-5.989-13.379Zm-3.5-7.829,2.258,5.046-2.22,5.039-2.258-5.046Zm-3.45,7.829,2.258,5.046L270.7,55.338q-2.44.3-4.838.807Zm-3.5-7.829,2.259,5.046L263.107,56.8q-2.637.7-5.208,1.647ZM256.6,61.387a55.063,55.063,0,0,1,5.319-1.9L260.1,63.624A51.418,51.418,0,0,0,254.573,66Zm-3.368,7.642a49.273,49.273,0,0,1,5.7-2.772l-2.194,4.978a46.11,46.11,0,0,0-6.152,3.791Z" transform="translate(-52.86 -23.539)" fill="#c2d500"/>
</svg>